<?xml version="1.0" encoding="utf-8"?>
<!-- Generator: Adobe Illustrator 15.1.0, SVG Export Plug-In . SVG Version: 6.00 Build 0)  -->
<!DOCTYPE svg PUBLIC "-//W3C//DTD SVG 1.1//EN" "http://www.w3.org/Graphics/SVG/1.1/DTD/svg11.dtd">
<svg version="1.1" id="Layer_2" xmlns="http://www.w3.org/2000/svg" xmlns:xlink="http://www.w3.org/1999/xlink" x="0px" y="0px"
	 width="174.5px" height="278px" viewBox="0 0 174.5 278" enable-background="new 0 0 174.5 278" xml:space="preserve">
<g>
	<polygon points="111.625,278 125.25,278 148.292,246.542 134.292,242.542 160.625,211.542 123.625,200.875 	"/>
	<polygon points="144.625,239.438 162.375,219.875 174.5,278 132.875,278 157.625,242.875 	"/>
</g>
<g>
	<polygon points="62.875,278 49.25,278 26.208,246.542 40.208,242.542 13.875,211.542 50.875,200.875 	"/>
	<polygon points="29.875,239.438 12.125,219.875 0,278 41.625,278 16.875,242.875 	"/>
</g>
<polygon points="64.875,224.25 86.75,217.75 109.25,224.25 109.25,200.875 87.062,206.75 64.875,200.875 "/>
<circle cx="87.062" cy="232.875" r="6"/>
<circle cx="87.062" cy="252.75" r="6"/>
<circle cx="87.062" cy="272" r="6"/>
<path d="M16.625,86.5v7.75c0,0,36.125,16,68.125,15.25s72.75-13.625,72.75-13.625v-9c0,0-24.5,5.875-45.375,6
	s-31.123,0.387-50.874-0.119S16.625,86.5,16.625,86.5z"/>
<path d="M127.75,4.25C124.131,2.86,117.125,0,107.875,0c-7.626,0-16.818,0-19.812,0c-0.637,0-1,0-1,0C84.068,0,74.876,0,67.25,0
	C58,0,50.994,2.86,47.375,4.25c-12.75,5.375-11.769,8.25-11.769,8.25L48.5,79.875c0,0,11.25,1.625,20.375,1.625
	c7.405,0,15.426,0,18.188,0c0,0,0.358,0,1,0c2.762,0,10.783,0,18.188,0c9.125,0,20.375-1.625,20.375-1.625L139.519,12.5
	C139.519,12.5,140.5,9.625,127.75,4.25z"/>
<g>
	<circle cx="109" cy="138.125" r="9.5"/>
	<circle cx="127.062" cy="138.312" r="1.938"/>
	<path d="M150.125,124.125c0,0-2.25-7.875-8.25-9c-2.517-0.472-3.639-0.546-4.104-0.475l0.229-5.125c0,0-0.805-0.689-1.385-0.334
		c-1.739,1.066-7.083,3.434-21.99,5.309c-17.006,2.139-25.083,2.448-27.062,2.492c-1.979-0.044-10.057-0.353-27.062-2.492
		c-14.907-1.875-20.251-4.242-21.99-5.309c-0.58-0.355-1.385,0.334-1.385,0.334l0.229,5.125c-0.465-0.071-1.587,0.003-4.104,0.475
		c-6,1.125-8.25,9-8.25,9s-0.875,1.125,0,10.125c0.8,8.227,8.5,10.25,8.5,10.25l4.114,0.605c-0.006,1.081,0.024,3.396,0.136,8.02
		C38,163.5,43.768,174.07,53.213,183.55c10.287,10.325,21.166,12.267,27.353,13.52c4.242,0.859,6.19,0.625,6.997,0.393
		c0.807,0.232,2.755,0.467,6.997-0.393c6.187-1.253,17.065-3.194,27.353-13.52c9.445-9.479,15.213-20.05,15.463-30.425
		c0.111-4.623,0.142-6.938,0.136-8.02l4.114-0.605c0,0,7.7-2.023,8.5-10.25C151,125.25,150.125,124.125,150.125,124.125z
		 M66.25,129.25c4.901,0,8.875,3.973,8.875,8.875c0,4.901-3.974,8.875-8.875,8.875s-8.875-3.974-8.875-8.875
		C57.375,133.223,61.349,129.25,66.25,129.25z M120.75,171.875c-1.25,5.584-7.791,7.75-9.5,7.875s-9.905,0.548-14.625,0
		c-7.542-0.875-9.375-4.876-9.375-5.959c0,1.083-1.833,5.084-9.375,5.959c-4.72,0.548-12.916,0.125-14.625,0s-8.25-2.291-9.5-7.875
		S52.25,159,52.25,159s1.25,2.375,3.125,4s5.125,2.875,9.5,1.5s8.459-4.291,10.375-5.5s5.5-3.25,7.625-2.5s4.375,3.25,4.375,3.25
		s2.25-2.5,4.375-3.25s5.709,1.291,7.625,2.5s6,4.125,10.375,5.5s7.625,0.125,9.5-1.5s3.125-4,3.125-4S122,166.291,120.75,171.875z
		 M127.125,142.75c-0.492,0-2.63-0.013-4.042-0.123c-1.891,5.731-7.281,9.873-13.646,9.873c-7.938,0-14.375-6.437-14.375-14.375
		c0-7.939,6.437-14.375,14.375-14.375c6.431,0,11.873,4.224,13.71,10.049c1.579,0.037,3.441,0.201,3.978,0.201
		c2.416,0,4.375,1.959,4.375,4.375S129.541,142.75,127.125,142.75z"/>
</g>
</svg>
